<?xml version="1.0" encoding="UTF-8"?>
<svg version="1.1" xmlns="http://www.w3.org/2000/svg" width="960" height="640">
<path d="M0 0 C316.8 0 633.6 0 960 0 C960 211.2 960 422.4 960 640 C643.2 640 326.4 640 0 640 C0 428.8 0 217.6 0 0 Z " fill="#FBDA09" transform="translate(0,0)"/>
<path d="M0 0 C316.8 0 633.6 0 960 0 C960 93.72 960 187.44 960 284 C643.2 284 326.4 284 0 284 C0 190.28 0 96.56 0 0 Z " fill="#DA1219" transform="translate(0,0)"/>
<path d="M0 0 C316.8 0 633.6 0 960 0 C960 23.43 960 46.86 960 71 C643.2 71 326.4 71 0 71 C0 47.57 0 24.14 0 0 Z " fill="#FCDD09" transform="translate(0,569)"/>
<path d="M0 0 C316.8 0 633.6 0 960 0 C960 23.43 960 46.86 960 71 C643.2 71 326.4 71 0 71 C0 47.57 0 24.14 0 0 Z " fill="#DA1219" transform="translate(0,498)"/>
<path d="M0 0 C316.8 0 633.6 0 960 0 C960 23.43 960 46.86 960 71 C643.2 71 326.4 71 0 71 C0 47.57 0 24.14 0 0 Z " fill="#FBDC09" transform="translate(0,427)"/>
<path d="M0 0 C316.8 0 633.6 0 960 0 C960 23.43 960 46.86 960 71 C643.2 71 326.4 71 0 71 C0 47.57 0 24.14 0 0 Z " fill="#DA1219" transform="translate(0,356)"/>
<path d="M0 0 C316.8 0 633.6 0 960 0 C960 23.43 960 46.86 960 71 C643.2 71 326.4 71 0 71 C0 47.57 0 24.14 0 0 Z " fill="#DA1219" transform="translate(0,213)"/>
<path d="M0 0 C316.8 0 633.6 0 960 0 C960 23.43 960 46.86 960 71 C643.2 71 326.4 71 0 71 C0 47.57 0 24.14 0 0 Z " fill="#FBDC09" transform="translate(0,142)"/>
<path d="M0 0 C316.8 0 633.6 0 960 0 C960 23.43 960 46.86 960 71 C643.2 71 326.4 71 0 71 C0 47.57 0 24.14 0 0 Z " fill="#FCDD09" transform="translate(0,0)"/>
</svg>
